<svg xmlns="http://www.w3.org/2000/svg" viewBox="0 0 1300 1300"><g transform="translate(520,570)"><path class="link" d="M66.45492621611788,-74.72444567616631C33.22746310805894,-37.362222838083156 -11.255522802199339,48.71666251344781 0,0"/><path class="link" d="M99.54114532486726,9.56871921490325C49.77057266243363,4.784359607451625 -11.255522802199339,48.71666251344781 0,0"/><path class="link" d="M66.7631935015016,74.44915038790606C33.3815967507508,37.22457519395303 -11.255522802199339,48.71666251344781 0,0"/><path class="link" d="M-18.33910388986965,98.3040043361234C-9.169551944934826,49.1520021680617 -11.255522802199339,48.71666251344781 0,0"/><path class="link" d="M-57.80466426011029,81.60037248552196C-28.902332130055147,40.80018624276098 -11.255522802199339,48.71666251344781 0,0"/><path class="link" d="M-82.35478367086732,56.72468251585586C-41.17739183543366,28.36234125792793 -11.255522802199339,48.71666251344781 0,0"/><path class="link" d="M-98.00284283045514,19.885743565406557C-49.00142141522757,9.942871782703278 -11.255522802199339,48.71666251344781 0,0"/><path class="link" d="M-97.27994194214725,-23.164906555660004C-48.63997097107362,-11.582453277830002 -11.255522802199339,48.71666251344781 0,0"/><path class="link" d="M-87.13988865255352,-49.05751528176467C-43.56994432627676,-24.528757640882336 -11.255522802199339,48.71666251344781 0,0"/><path class="link" d="M-69.52279827427428,-71.87892959772401C-34.76139913713714,-35.939464798862005 -11.255522802199339,48.71666251344781 0,0"/><path class="link" d="M-26.940742749553497,-96.30262914428859C-13.470371374776748,-48.151314572144294 -11.255522802199339,48.71666251344781 0,0"/><path class="link" d="M132.90985243223582,-149.44889135233254C99.68238932417685,-112.08666851424941 99.68238932417682,-112.08666851424945 66.45492621611788,-74.72444567616631"/><path class="link" d="M199.08229064973452,19.1374384298065C149.31171798730088,14.353078822354878 149.31171798730088,14.353078822354878 99.54114532486726,9.56871921490325"/><path class="link" d="M190.91992057599302,59.57838473185154C143.18994043199476,44.68378854888866 100.1447902522524,111.67372558185909 66.7631935015016,74.44915038790606"/><path class="link" d="M186.86195829567765,71.29241573901412C140.14646872175823,53.469311804260585 100.1447902522524,111.67372558185909 66.7631935015016,74.44915038790606"/><path class="link" d="M182.08604630292123,82.73253133907139C136.5645347271909,62.04939850430355 100.1447902522524,111.67372558185909 66.7631935015016,74.44915038790606"/><path class="link" d="M158.75711578595264,121.63954203845732C119.06783683946448,91.229656528843 100.1447902522524,111.67372558185909 66.7631935015016,74.44915038790606"/><path class="link" d="M117.45671798383009,161.8762471781052C88.09253848787256,121.40718538357889 100.1447902522524,111.67372558185909 66.7631935015016,74.44915038790606"/><path class="link" d="M38.50490026473473,196.25843333625903C28.878675198551043,147.19382500219427 100.1447902522524,111.67372558185909 66.7631935015016,74.44915038790606"/><path class="link" d="M-6.714854336747107,199.88724504389035C-5.03614075256033,149.91543378291777 -27.508655834804475,147.4560065041851 -18.33910388986965,98.3040043361234"/><path class="link" d="M-65.80845613339058,188.86303794374274C-49.35634210004294,141.64727845780703 -27.508655834804475,147.4560065041851 -18.33910388986965,98.3040043361234"/><path class="link" d="M-115.60932852022059,163.20074497104392C-86.70699639016544,122.40055872828293 -86.70699639016544,122.40055872828293 -57.80466426011029,81.60037248552196"/><path class="link" d="M-149.41455413385677,132.94845246553558C-112.06091560039259,99.7113393491517 -123.53217550630099,85.0870237737838 -82.35478367086732,56.72468251585586"/><path class="link" d="M-164.70956734173473,113.44936503171164C-123.53217550630104,85.08702377378373 -123.53217550630099,85.0870237737838 -82.35478367086732,56.72468251585586"/><path class="link" d="M-177.4756634543009,92.20839919148212C-133.1067475907257,69.15629939361159 -123.53217550630099,85.0870237737838 -82.35478367086732,56.72468251585586"/><path class="link" d="M-187.51683443619635,69.551684401085C-140.63762582714725,52.16376330081375 -147.00426424568272,29.828615348109835 -98.00284283045514,19.885743565406557"/><path class="link" d="M-191.46569126478985,57.80042446640144C-143.5992684485924,43.35031834980108 -147.00426424568272,29.828615348109835 -98.00284283045514,19.885743565406557"/><path class="link" d="M-194.67891019661906,45.82708723731777C-146.00918264746429,34.37031542798833 -147.00426424568272,29.828615348109835 -98.00284283045514,19.885743565406557"/><path class="link" d="M-197.14414559627937,33.67767594583988C-147.85810919720953,25.25825695937991 -147.00426424568272,29.828615348109835 -98.00284283045514,19.885743565406557"/><path class="link" d="M-198.8519256854461,21.398870325085205C-149.13894426408459,16.049152743813906 -147.00426424568272,29.828615348109835 -98.00284283045514,19.885743565406557"/><path class="link" d="M-199.79568893476835,9.037847259235855C-149.84676670107626,6.778385444426892 -147.00426424568272,29.828615348109835 -98.00284283045514,19.885743565406557"/><path class="link" d="M-199.37961002476698,-15.740746690415818C-149.53470751857523,-11.805560017811864 -145.91991291322088,-34.74735983349 -97.27994194214725,-23.164906555660004"/><path class="link" d="M-198.02136649866176,-28.063114759461C-148.51602487399632,-21.04733606959575 -145.91991291322088,-34.74735983349 -97.27994194214725,-23.164906555660004"/><path class="link" d="M-195.90229725697702,-40.277660426581505C-146.92672294273277,-30.208245319936125 -145.91991291322088,-34.74735983349 -97.27994194214725,-23.164906555660004"/><path class="link" d="M-193.03054405936564,-52.337453703302195C-144.77290804452423,-39.253090277476645 -145.91991291322088,-34.74735983349 -97.27994194214725,-23.164906555660004"/><path class="link" d="M-189.41714058224434,-64.19615918142054C-142.06285543668326,-48.147119386065405 -145.91991291322088,-34.74735983349 -97.27994194214725,-23.164906555660004"/><path class="link" d="M-185.07597002586945,-75.80821406011007C-138.8069775194021,-56.85616054508255 -145.91991291322088,-34.74735983349 -97.27994194214725,-23.164906555660004"/><path class="link" d="M-174.27977730510705,-98.11503056352934C-130.7098329788303,-73.58627292264701 -130.7098329788303,-73.58627292264701 -87.13988865255352,-49.05751528176467"/><path class="link" d="M-155.75703640263194,-125.45814286473873C-116.81777730197396,-94.09360714855404 -104.28419741141141,-107.81839439658603 -69.52279827427428,-71.87892959772401"/><path class="link" d="M-120.19927897112159,-159.8503466834604C-90.1494592283412,-119.88776001259531 -104.28419741141141,-107.81839439658603 -69.52279827427428,-71.87892959772401"/><path class="link" d="M-99.50744618568278,-173.48852455884062C-74.63058463926208,-130.11639341913047 -40.41111412433025,-144.4539437164329 -26.940742749553497,-96.30262914428859"/><path class="link" d="M-88.56776613531332,-179.32024649157842C-66.42582460148499,-134.49018486868383 -40.41111412433025,-144.4539437164329 -26.940742749553497,-96.30262914428859"/><path class="link" d="M-77.28779637157263,-184.46299502075294C-57.96584727867947,-138.3472462655647 -40.41111412433025,-144.4539437164329 -26.940742749553497,-96.30262914428859"/><path class="link" d="M-65.710876111935,-188.89701098906232C-49.283157083951245,-141.67275824179674 -40.41111412433025,-144.4539437164329 -26.940742749553497,-96.30262914428859"/><path class="link" d="M-53.881485499106994,-192.60525828857718C-40.41111412433025,-144.4539437164329 -40.41111412433025,-144.4539437164329 -26.940742749553497,-96.30262914428859"/><path class="link" d="M-41.84507470211271,-195.57348931584414C-31.383806026584534,-146.68011698688312 -40.41111412433025,-144.4539437164329 -26.940742749553497,-96.30262914428859"/><path class="link" d="M-29.647889290405853,-197.7902997131655C-22.23591696780439,-148.34272478487412 -40.41111412433025,-144.4539437164329 -26.940742749553497,-96.30262914428859"/><path class="link" d="M-17.33679255193829,-199.2471721857328C-13.00259441395372,-149.4353791392996 -40.41111412433025,-144.4539437164329 -26.940742749553497,-96.30262914428859"/><path class="link" d="M-4.95908543787151,-199.9385092262616C-3.7193140784036323,-149.9538819196962 -40.41111412433025,-144.4539437164329 -26.940742749553497,-96.30262914428859"/><path class="link" d="M35.25544749312543,-297.9212201607322C29.379539577604525,-248.26768346727684 166.13731554029476,-186.81111419041568 132.90985243223582,-149.44889135233254"/><path class="link" d="M151.67464738901424,-258.8335398270831C126.3955394908452,-215.69461652256922 166.13731554029476,-186.81111419041568 132.90985243223582,-149.44889135233254"/><path class="link" d="M243.76651933817894,-174.86533118302563C203.1387661151491,-145.72110931918803 166.13731554029476,-186.81111419041568 132.90985243223582,-149.44889135233254"/><path class="link" d="M269.9003846452523,-130.97244889038632C224.9169872043769,-109.14370740865526 166.13731554029476,-186.81111419041568 132.90985243223582,-149.44889135233254"/><path class="link" d="M291.7678647263914,-69.79622563579053C243.13988727199282,-58.163521363158786 166.13731554029476,-186.81111419041568 132.90985243223582,-149.44889135233254"/><path class="link" d="M298.78174638898395,-27.008665734332208C248.9847886574866,-22.50722144527684 248.85286331216813,23.921798037258128 199.08229064973452,19.1374384298065"/><path class="link" d="M299.6425474895477,-14.640482709738118C249.70212290795644,-12.200402258115098 248.85286331216813,23.921798037258128 199.08229064973452,19.1374384298065"/><path class="link" d="M299.15284577434073,22.529422209934904C249.29403814528393,18.774518508279087 248.85286331216813,23.921798037258128 199.08229064973452,19.1374384298065"/><path class="link" d="M297.1823370331792,41.020221299962564C247.65194752764933,34.18351774996881 248.85286331216813,23.921798037258128 199.08229064973452,19.1374384298065"/><path class="link" d="M294.0700122939324,59.35341497712195C245.058343578277,49.46117914760163 248.85286331216813,23.921798037258128 199.08229064973452,19.1374384298065"/><path class="link" d="M291.36651283000447,71.45316788836483C242.80542735833706,59.54430657363736 248.85286331216813,23.921798037258128 199.08229064973452,19.1374384298065"/><path class="link" d="M288.16538225105955,83.43088440200513C240.1378185425496,69.52573700167095 248.85286331216813,23.921798037258128 199.08229064973452,19.1374384298065"/><path class="link" d="M280.29293744351645,106.93862360852117C233.57744786959705,89.11551967376764 227.60755787865153,103.41566417383923 182.08604630292123,82.73253133907139"/><path class="link" d="M275.6350687322135,118.42849692953102C229.6958906101779,98.69041410794252 227.60755787865153,103.41566417383923 182.08604630292123,82.73253133907139"/><path class="link" d="M270.50643697659655,129.7161036811798C225.42203081383047,108.09675306764981 227.60755787865153,103.41566417383923 182.08604630292123,82.73253133907139"/><path class="link" d="M264.91580147681407,140.7821655178568C220.76316789734506,117.31847126488069 227.60755787865153,103.41566417383923 182.08604630292123,82.73253133907139"/><path class="link" d="M252.38748546799314,162.17446525006196C210.32290455666094,135.14538770838496 198.4463947324408,152.04942754807166 158.75711578595264,121.63954203845732"/><path class="link" d="M245.47120233851015,172.46416677816353C204.5593352820918,143.72013898180293 198.4463947324408,152.04942754807166 158.75711578595264,121.63954203845732"/><path class="link" d="M238.13567367892895,182.459313057686C198.4463947324408,152.04942754807166 198.4463947324408,152.04942754807166 158.75711578595264,121.63954203845732"/><path class="link" d="M230.39342799594257,192.14283316397314C191.99452332995216,160.1190276366443 198.4463947324408,152.04942754807166 158.75711578595264,121.63954203845732"/><path class="link" d="M222.25768843696954,201.49818840539228C185.21474036414128,167.91515700449358 198.4463947324408,152.04942754807166 158.75711578595264,121.63954203845732"/><path class="link" d="M204.8619568319626,219.16107921567436C170.71829735996883,182.63423267972865 146.82089747978762,202.34530897263147 117.45671798383009,161.8762471781052"/><path class="link" d="M144.80308739036207,262.73954000534286C120.6692394919684,218.94961667111906 146.82089747978762,202.34530897263147 117.45671798383009,161.8762471781052"/><path class="link" d="M57.75735039710209,294.38765000438855C48.13112533091841,245.3230416703238 48.13112533091841,245.3230416703238 38.50490026473473,196.25843333625903"/><path class="link" d="M33.25379379268294,298.1512790487301C27.711494827235782,248.45939920727508 -8.393567920933885,249.85905630486295 -6.714854336747107,199.88724504389035"/><path class="link" d="M20.906327438566915,299.2706558836523C17.4219395321391,249.39221323637693 -8.393567920933885,249.85905630486295 -6.714854336747107,199.88724504389035"/><path class="link" d="M8.52315471952531,299.8789019481481C7.102628932937759,249.8990849567901 -8.393567920933885,249.85905630486295 -6.714854336747107,199.88724504389035"/><path class="link" d="M-3.874574878223134,299.97497840572146C-3.2288123985192785,249.97914867143453 -8.393567920933885,249.85905630486295 -6.714854336747107,199.88724504389035"/><path class="link" d="M-16.265687006454787,299.5587211653302C-13.554739172045656,249.63226763777516 -8.393567920933885,249.85905630486295 -6.714854336747107,199.88724504389035"/><path class="link" d="M-28.629018619064098,298.630841161641C-23.85751551588675,248.85903430136753 -8.393567920933885,249.85905630486295 -6.714854336747107,199.88724504389035"/><path class="link" d="M-40.94345411688339,297.1929231408088C-34.11954509740282,247.6607692840073 -8.393567920933885,249.85905630486295 -6.714854336747107,199.88724504389035"/><path class="link" d="M-53.18796141146856,295.2474229538543C-44.323301176223794,246.03951912821194 -8.393567920933885,249.85905630486295 -6.714854336747107,199.88724504389035"/><path class="link" d="M-77.38369591372181,289.84782836297506C-64.48641326143483,241.53985696914586 -82.26057016673822,236.07879742967842 -65.80845613339058,188.86303794374274"/><path class="link" d="M-119.49560367028734,275.1741279689528C-99.57966972523944,229.31177330746067 -82.26057016673822,236.07879742967842 -65.80845613339058,188.86303794374274"/><path class="link" d="M-141.80757080474908,264.36832802447435C-118.17297567062424,220.3069400203953 -144.51166065027573,204.00093121380488 -115.60932852022059,163.20074497104392"/><path class="link" d="M-152.60969149837175,258.28333678495756C-127.17474291530978,215.23611398746462 -144.51166065027573,204.00093121380488 -115.60932852022059,163.20074497104392"/><path class="link" d="M-163.15116682748416,251.7572178961915C-135.95930568957013,209.79768158015958 -144.51166065027573,204.00093121380488 -115.60932852022059,163.20074497104392"/><path class="link" d="M-173.4139927803309,244.80111745656586C-144.51166065027573,204.00093121380488 -144.51166065027573,204.00093121380488 -115.60932852022059,163.20074497104392"/><path class="link" d="M-183.38064125640236,237.42691593918045C-152.81720104700196,197.85576328265037 -144.51166065027573,204.00093121380488 -115.60932852022059,163.20074497104392"/><path class="link" d="M-193.03409000305209,229.64720790093133C-160.8617416692101,191.3726732507761 -144.51166065027573,204.00093121380488 -115.60932852022059,163.20074497104392"/><path class="link" d="M-202.35785168816713,221.47528047199705C-168.6315430734726,184.56273372666422 -144.51166065027573,204.00093121380488 -115.60932852022059,163.20074497104392"/><path class="link" d="M-219.9532071407242,204.01124152484755C-183.29433928393684,170.00936793737296 -186.768192667321,166.1855655819195 -149.41455413385677,132.94845246553558"/><path class="link" d="M-228.19474942329256,194.7489572132306C-190.16229118607714,162.29079767769215 -186.768192667321,166.1855655819195 -149.41455413385677,132.94845246553558"/><path class="link" d="M-243.4952076076157,175.24292816580112C-202.9126730063464,146.03577347150093 -205.8869591771684,141.81170628963955 -164.70956734173473,113.44936503171164"/><path class="link" d="M-250.5279915287506,165.03249819526536C-208.77332627395884,137.5270818293878 -205.8869591771684,141.81170628963955 -164.70956734173473,113.44936503171164"/><path class="link" d="M-263.29863233125496,143.78397063821345C-219.41552694271246,119.81997553184453 -221.84457931787614,115.26049898935264 -177.4756634543009,92.20839919148212"/><path class="link" d="M-269.01467796135756,132.78216386754318C-224.1788983011313,110.65180322295265 -221.84457931787614,115.26049898935264 -177.4756634543009,92.20839919148212"/><path class="link" d="M-267.27732591961,-136.24548083977893C-222.7311049330083,-113.53790069981578 -217.8497216313838,-122.64378820441169 -174.27977730510705,-98.11503056352934"/><path class="link" d="M-261.4196659576606,-147.17254584529402C-217.8497216313838,-122.64378820441169 -217.8497216313838,-122.64378820441169 -174.27977730510705,-98.11503056352934"/><path class="link" d="M-255.11552174261547,-157.84825170394856C-212.5962681188462,-131.54020975329047 -217.8497216313838,-122.64378820441169 -174.27977730510705,-98.11503056352934"/><path class="link" d="M-241.21159265644548,-178.37311335551954C-201.0096605470379,-148.6442611295996 -194.69629550328992,-156.82267858092342 -155.75703640263194,-125.45814286473873"/><path class="link" d="M-233.63555460394792,-188.18721429710808C-194.69629550328992,-156.82267858092342 -194.69629550328992,-156.82267858092342 -155.75703640263194,-125.45814286473873"/><path class="link" d="M-225.66048537790866,-197.67990626011203C-188.05040448159056,-164.73325521676003 -194.69629550328992,-156.82267858092342 -155.75703640263194,-125.45814286473873"/><path class="link" d="M-208.56839482282282,-215.63678879317206C-173.8069956856857,-179.69732399431004 -150.249098713902,-199.8129333543255 -120.19927897112159,-159.8503466834604"/><path class="link" d="M-199.48056544173988,-224.07031041850175C-166.23380453478322,-186.72525868208479 -150.249098713902,-199.8129333543255 -120.19927897112159,-159.8503466834604"/><path class="link" d="M-190.05203892548852,-232.12113755594208C-158.3766991045738,-193.43428129661842 -150.249098713902,-199.8129333543255 -120.19927897112159,-159.8503466834604"/><path class="link" d="M-180.2989184566824,-239.77552002519062C-150.249098713902,-199.8129333543255 -150.249098713902,-199.8129333543255 -120.19927897112159,-159.8503466834604"/><path class="link" d="M-170.23786159890523,-247.0203847422961C-141.86488466575437,-205.85032061858007 -150.249098713902,-199.8129333543255 -120.19927897112159,-159.8503466834604"/><path class="link" d="M-159.88605184690266,-253.84335804745723C-133.23837653908555,-211.53613170621435 -150.249098713902,-199.8129333543255 -120.19927897112159,-159.8503466834604"/><path class="link" d="M-149.26116927852416,-260.23278683826095C-124.38430773210348,-216.86065569855077 -150.249098713902,-199.8129333543255 -120.19927897112159,-159.8503466834604"/><path class="link" d="M24.78208707476173,-399.23157209847386C21.684326190416513,-349.32762558616463 41.131355408646336,-347.57475685418757 35.25544749312543,-297.9212201607322"/><path class="link" d="M47.00726332416724,-397.228293547643C41.131355408646336,-347.57475685418757 41.131355408646336,-347.57475685418757 35.25544749312543,-297.9212201607322"/><path class="link" d="M69.08613781488711,-393.98871248022124C60.450370588026225,-344.7401234201936 41.131355408646336,-347.57475685418757 35.25544749312543,-297.9212201607322"/><path class="link" d="M93.36307497301817,-388.951585973862C81.6926906013909,-340.3326377271293 176.95375528718327,-301.9724631315969 151.67464738901424,-258.8335398270831"/><path class="link" d="M105.37280585850002,-385.8711854822887C92.20120512618752,-337.6372872970026 176.95375528718327,-301.9724631315969 151.67464738901424,-258.8335398270831"/><path class="link" d="M117.2812981722416,-382.420053212477C102.6211359007114,-334.6175465609174 176.95375528718327,-301.9724631315969 151.67464738901424,-258.8335398270831"/><path class="link" d="M129.07711064394962,-378.60150489374655C112.94247181345592,-331.27631678202823 176.95375528718327,-301.9724631315969 151.67464738901424,-258.8335398270831"/><path class="link" d="M140.74891026225131,-374.4192092561341C123.1552964794699,-327.6168080991173 176.95375528718327,-301.9724631315969 151.67464738901424,-258.8335398270831"/><path class="link" d="M152.28548316306328,-369.8771845056036C133.24979776768038,-323.6425364424032 176.95375528718327,-301.9724631315969 151.67464738901424,-258.8335398270831"/><path class="link" d="M163.67574540348636,-364.97979446349234C143.2162772280506,-319.3573201555558 176.95375528718327,-301.9724631315969 151.67464738901424,-258.8335398270831"/><path class="link" d="M174.9087536108774,-359.73174437390065C153.0451594095177,-314.76527632716306 176.95375528718327,-301.9724631315969 151.67464738901424,-258.8335398270831"/><path class="link" d="M185.9737154968657,-354.1380763830555C162.7270010597575,-309.87081683517357 176.95375528718327,-301.9724631315969 151.67464738901424,-258.8335398270831"/><path class="link" d="M196.8600002262128,-348.2041646949897C172.25250019793623,-304.678644108116 176.95375528718327,-301.9724631315969 151.67464738901424,-258.8335398270831"/><path class="link" d="M207.55714863055377,-341.93571040819097C181.61250505173456,-299.1937466071671 176.95375528718327,-301.9724631315969 151.67464738901424,-258.8335398270831"/><path class="link" d="M218.05488325720694,-335.33873603818256C190.79802285005607,-293.42139403340974 176.95375528718327,-301.9724631315969 151.67464738901424,-258.8335398270831"/><path class="link" d="M228.34311824339716,-328.4195797312973C199.8002284629725,-287.36713226488513 176.95375528718327,-301.9724631315969 151.67464738901424,-258.8335398270831"/><path class="link" d="M238.41196900640665,-321.1848891752042C208.6104728806058,-281.0367780283037 176.95375528718327,-301.9724631315969 151.67464738901424,-258.8335398270831"/><path class="link" d="M248.251761740342,-313.6416152120386C217.22029152279924,-274.43641331053374 176.95375528718327,-301.9724631315969 151.67464738901424,-258.8335398270831"/><path class="link" d="M257.85304271039485,-305.7970051602718C225.62141237159548,-267.57237951523786 176.95375528718327,-301.9724631315969 151.67464738901424,-258.8335398270831"/><path class="link" d="M267.20658733566535,-297.65859585173655C233.80576391870719,-260.45127137026947 176.95375528718327,-301.9724631315969 151.67464738901424,-258.8335398270831"/><path class="link" d="M276.30340905182265,-289.23420639049795C241.76548292034482,-253.07993059168572 176.95375528718327,-301.9724631315969 151.67464738901424,-258.8335398270831"/><path class="link" d="M285.1347679450872,-280.5319306405267C249.4929219519513,-245.46543931046085 176.95375528718327,-301.9724631315969 151.67464738901424,-258.8335398270831"/><path class="link" d="M293.6921791492394,-271.56012944939295C256.9806567555845,-237.61511326821883 176.95375528718327,-301.9724631315969 151.67464738901424,-258.8335398270831"/><path class="link" d="M309.9525429220647,-252.8426806062331C271.20847505680666,-221.23734553045398 284.39427256120877,-204.00955304686323 243.76651933817894,-174.86533118302563"/><path class="link" d="M317.63987309185677,-243.11501603600948C277.9348889553747,-212.72563903150828 284.39427256120877,-204.00955304686323 243.76651933817894,-174.86533118302563"/><path class="link" d="M325.02202578423856,-233.15377491070083C284.39427256120877,-204.00955304686323 284.39427256120877,-204.00955304686323 243.76651933817894,-174.86533118302563"/><path class="link" d="M332.0919084805204,-222.9685276485578C290.5804199204553,-195.09746169248805 284.39427256120877,-204.00955304686323 243.76651933817894,-174.86533118302563"/><path class="link" d="M338.8427286802966,-212.56905988523096C296.4873875952595,-185.9979273995771 284.39427256120877,-204.00955304686323 243.76651933817894,-174.86533118302563"/><path class="link" d="M351.36155054161867,-191.16762487667606C307.44135672391633,-167.27167176709156 314.88378208612767,-152.80119037211736 269.9003846452523,-130.97244889038632"/><path class="link" d="M357.1175245492098,-180.18621939494855C312.47783398055856,-157.66294197057996 314.88378208612767,-152.80119037211736 269.9003846452523,-130.97244889038632"/><path class="link" d="M362.53039230814244,-169.03169718400258C317.21409326962464,-147.90273503600227 314.88378208612767,-152.80119037211736 269.9003846452523,-130.97244889038632"/><path class="link" d="M367.59495332103523,-157.71477512555992C321.64558415590585,-138.00042823486493 314.88378208612767,-152.80119037211736 269.9003846452523,-130.97244889038632"/><path class="link" d="M376.66003099990024,-134.63736868772426C329.5775271249127,-117.80769760175873 340.39584218078994,-81.42892990842229 291.7678647263914,-69.79622563579053"/><path class="link" d="M380.6518382506733,-122.8990562876024C333.0703584693391,-107.5366742516521 340.39584218078994,-81.42892990842229 291.7678647263914,-69.79622563579053"/><path class="link" d="M384.2779282927151,-111.04266669645008C336.24318725612574,-97.16233335939383 340.39584218078994,-81.42892990842229 291.7678647263914,-69.79622563579053"/><path class="link" d="M387.5348173032892,-99.07959112605513C339.09296514037806,-86.69464223529825 340.39584218078994,-81.42892990842229 291.7678647263914,-69.79622563579053"/><path class="link" d="M390.4193761753261,-87.02132328842879C341.6169541534103,-76.14365787737519 340.39584218078994,-81.42892990842229 291.7678647263914,-69.79622563579053"/><path class="link" d="M392.9288335237617,-74.87944835304253C343.8127293332915,-65.51951730891221 340.39584218078994,-81.42892990842229 291.7678647263914,-69.79622563579053"/><path class="link" d="M395.0607783481893,-62.66563181619471C345.6781810546656,-54.83242783917037 340.39584218078994,-81.42892990842229 291.7678647263914,-69.79622563579053"/><path class="link" d="M396.8131623492653,-50.39160829320311C347.21151705560715,-44.09265725655273 340.39584218078994,-81.42892990842229 291.7678647263914,-69.79622563579053"/><path class="link" d="M399.1728796465589,-25.710156644287423C349.27626969073907,-22.496387063751495 349.582972071139,-17.080563161361138 299.6425474895477,-14.640482709738118"/><path class="link" d="M399.7779458074663,-13.326441609165565C349.80570258153307,-11.660636408019869 349.582972071139,-17.080563161361138 299.6425474895477,-14.640482709738118"/><path class="link" d="M399.8355870784208,11.467489073660776C349.8561386936182,10.034052939453177 349.01165340339753,26.28432591159072 299.15284577434073,22.529422209934904"/><path class="link" d="M399.28810680871504,23.853883564571504C349.3770934576257,20.872148119000066 349.01165340339753,26.28432591159072 299.15284577434073,22.529422209934904"/><path class="link" d="M398.35700424370464,36.217360063663875C348.56237871324157,31.690190055705894 349.01165340339753,26.28432591159072 299.15284577434073,22.529422209934904"/><path class="link" d="M397.04317395474555,48.54604016747039C347.4127772104024,42.47778514653659 349.01165340339753,26.28432591159072 299.15284577434073,22.529422209934904"/><path class="link" d="M393.27274583588945,73.05167611150281C344.11365260640326,63.920216597564966 343.0816810095878,69.24565080664227 294.0700122939324,59.35341497712195"/><path class="link" d="M390.81977050379425,85.20508777861549C341.96729919082,74.55445180628855 343.0816810095878,69.24565080664227 294.0700122939324,59.35341497712195"/><path class="link" d="M307.19123732792343,256.1904442186309C268.792332661933,224.166638691302 268.792332661933,224.166638691302 230.39342799594257,192.14283316397314"/><path class="link" d="M273.1492757759501,292.21477228756584C239.00561630395634,255.6879257516201 239.00561630395634,255.6879257516201 204.8619568319626,219.16107921567436"/><path class="link" d="M193.07078318714943,350.3193866737905C168.93693528875576,306.5294633395667 168.93693528875576,306.5294633395667 144.80308739036207,262.73954000534286"/><path class="link" d="M170.99576688390576,361.60814109721724C149.62129602341756,316.40712346006507 67.38357546328577,343.4522583384533 57.75735039710209,294.38765000438855"/><path class="link" d="M159.70648418810367,366.73401656824115C139.7431736645907,320.892264497211 67.38357546328577,343.4522583384533 57.75735039710209,294.38765000438855"/><path class="link" d="M148.26376098907957,371.50754659545356C129.73079086544465,325.06910327102185 67.38357546328577,343.4522583384533 57.75735039710209,294.38765000438855"/><path class="link" d="M136.6785910621635,375.92414493520084C119.59376717939305,328.93362681830075 67.38357546328577,343.4522583384533 57.75735039710209,294.38765000438855"/><path class="link" d="M124.96210504060767,379.9795682715324C109.34184191053171,332.48212223759083 67.38357546328577,343.4522583384533 57.75735039710209,294.38765000438855"/><path class="link" d="M113.12555972165623,383.66992029303265C98.9848647564492,335.71118025640357 67.38357546328577,343.4522583384533 57.75735039710209,294.38765000438855"/><path class="link" d="M101.18032725140228,386.99165543626276C88.53278634497698,338.61769850672994 67.38357546328577,343.4522583384533 57.75735039710209,294.38765000438855"/><path class="link" d="M89.13788419881948,389.94158229221705C77.99564867396705,341.1988845056899 67.38357546328577,343.4522583384533 57.75735039710209,294.38765000438855"/><path class="link" d="M77.00980052946946,392.51686667251806C67.38357546328577,343.4522583384533 67.38357546328577,343.4522583384533 57.75735039710209,294.38765000438855"/><path class="link" d="M64.80772848947592,394.71503433240844C56.706762428291434,345.3756550408574 67.38357546328577,343.4522583384533 57.75735039710209,294.38765000438855"/><path class="link" d="M52.543391410447406,396.53397334791947C45.975467484141475,346.96722667942953 67.38357546328577,343.4522583384533 57.75735039710209,294.38765000438855"/><path class="link" d="M40.228572446103136,397.9719361449355C35.20000089034025,348.22544412681856 67.38357546328577,343.4522583384533 57.75735039710209,294.38765000438855"/><path class="link" d="M27.875103251422555,399.0275411782031C24.390715344994735,349.1490985309277 67.38357546328577,343.4522583384533 57.75735039710209,294.38765000438855"/><path class="link" d="M15.494852615199427,399.6997742586719C13.5579960382995,349.7373024763379 67.38357546328577,343.4522583384533 57.75735039710209,294.38765000438855"/><path class="link" d="M3.099715056915953,399.9879895278931C2.7122506748014588,349.98949083690644 67.38357546328577,343.4522583384533 57.75735039710209,294.38765000438855"/><path class="link" d="M-9.298400601101878,399.8919100785379C-8.136100525964142,349.90542131872064 67.38357546328577,343.4522583384533 57.75735039710209,294.38765000438855"/><path class="link" d="M-21.68758267527305,399.41162822044026C-18.976634840863916,349.4851746928852 67.38357546328577,343.4522583384533 57.75735039710209,294.38765000438855"/><path class="link" d="M-88.7349300580109,390.0334757268918C-77.64306380075953,341.2792912610303 -90.28097856600877,338.15579975680424 -77.38369591372181,289.84782836297506"/><path class="link" d="M-117.47885002246055,382.35941180700684C-102.79399376965297,334.564485331131 -90.28097856600877,338.15579975680424 -77.38369591372181,289.84782836297506"/><path class="link" d="M-145.57288859551875,372.5701733981891C-127.37627752107889,325.9989017234155 -139.41153761533522,321.03648263044494 -119.49560367028734,275.1741279689528"/><path class="link" d="M-172.8616323314962,360.7199136001375C-151.25392829005915,315.6299244001203 -139.41153761533522,321.03648263044494 -119.49560367028734,275.1741279689528"/><path class="link" d="M12.39771359467838,-499.846273065654C11.157942235210543,-449.8616457590886 27.879847959106947,-449.1355186107831 24.78208707476173,-399.23157209847386"/><path class="link" d="M24.78780373934138,-499.3851867904973C22.309023365407242,-449.4466681114476 27.879847959106947,-449.1355186107831 24.78208707476173,-399.23157209847386"/><path class="link" d="M37.162651671692196,-498.6170247000482C33.44638650452298,-448.75532223004336 27.879847959106947,-449.1355186107831 24.78208707476173,-399.23157209847386"/><path class="link" d="M49.51464800198881,-497.54225914311957C44.56318320178993,-447.7880332288076 27.879847959106947,-449.1355186107831 24.78208707476173,-399.23157209847386"/><path class="link" d="M74.11972322601413,-494.4757492829138C66.70775090341272,-445.0281743546224 77.721905041748,-443.2373015402489 69.08613781488711,-393.98871248022124"/><path class="link" d="M86.3576722686089,-492.48589060027655C77.721905041748,-443.2373015402489 77.721905041748,-443.2373015402489 69.08613781488711,-393.98871248022124"/><path class="link" d="M98.54251931034331,-490.1931985329566C88.68826737930898,-441.17387867966096 77.721905041748,-443.2373015402489 69.08613781488711,-393.98871248022124"/><path class="link" d="M359.1251613256562,347.89239500572785C323.2126451930906,313.10315550515503 307.2929352479439,328.74161882351154 273.1492757759501,292.21477228756584"/><path class="link" d="M350.3886063553665,356.69009593251116C315.34974571982985,321.02108633926 307.2929352479439,328.74161882351154 273.1492757759501,292.21477228756584"/><path class="link" d="M341.43659471993766,365.2684653594573C307.2929352479439,328.74161882351154 307.2929352479439,328.74161882351154 273.1492757759501,292.21477228756584"/><path class="link" d="M332.27463108058964,373.6222283808313C299.04716797253064,336.26000554274816 307.2929352479439,328.74161882351154 273.1492757759501,292.21477228756584"/><path class="link" d="M322.90834919965357,381.74624820311544C290.6175142796882,343.57162338280386 307.2929352479439,328.74161882351154 273.1492757759501,292.21477228756584"/><path class="link" d="M303.5859904051828,397.2852205024801C273.2273913646645,357.55669845223207 217.2046310855431,394.1093100080143 193.07078318714943,350.3193866737905"/><path class="link" d="M293.64179495957524,404.69061794526294C264.2776154636177,364.22155615073666 217.2046310855431,394.1093100080143 193.07078318714943,350.3193866737905"/><path class="link" d="M283.51703690222786,411.8471679958244C255.16533321200507,370.66245119624193 217.2046310855431,394.1093100080143 193.07078318714943,350.3193866737905"/><path class="link" d="M273.21794202520886,418.75047003616555C245.896147822688,376.875423032549 217.2046310855431,394.1093100080143 193.07078318714943,350.3193866737905"/><path class="link" d="M262.75084332164664,425.3962791724482C236.475758989482,382.8566512552034 217.2046310855431,394.1093100080143 193.07078318714943,350.3193866737905"/><path class="link" d="M252.1221770915215,431.7805088452135C226.90995938236935,388.6024579606921 217.2046310855431,394.1093100080143 193.07078318714943,350.3193866737905"/><path class="link" d="M241.3384789839368,437.8992333422381C217.2046310855431,394.1093100080143 217.2046310855431,394.1093100080143 193.07078318714943,350.3193866737905"/><path class="link" d="M230.40637997829666,443.74869021248594C207.365741980467,399.3738211912373 217.2046310855431,394.1093100080143 193.07078318714943,350.3193866737905"/><path class="link" d="M219.3326023068646,449.3252825796683C197.39934207617816,404.3927543217015 217.2046310855431,394.1093100080143 193.07078318714943,350.3193866737905"/><path class="link" d="M208.12395532121397,454.62558135398996C187.31155978909257,409.163023218591 217.2046310855431,394.1093100080143 193.07078318714943,350.3193866737905"/><path class="link" d="M196.78733130510108,459.64632734072444C177.10859817459095,413.68169460665194 217.2046310855431,394.1093100080143 193.07078318714943,350.3193866737905"/><path class="link" d="M185.32970123634948,464.38443324431694C166.79673111271453,417.9459899198852 217.2046310855431,394.1093100080143 193.07078318714943,350.3193866737905"/><path class="link" d="M173.7581105003411,468.8369855667866C156.382299450307,421.95328701010794 217.2046310855431,394.1093100080143 193.07078318714943,350.3193866737905"/><path class="link" d="M-104.86526784892398,488.8796125826617C-94.37874106403157,439.99165132439555 -99.82679631526226,438.7876601927533 -88.7349300580109,390.0334757268918"/><path class="link" d="M-116.95500545478679,486.1291255408081C-105.25950490930812,437.5162129867273 -99.82679631526226,438.7876601927533 -88.7349300580109,390.0334757268918"/><path class="link" d="M-140.91134120201116,479.7332528819014C-126.82020708181004,431.75992759371127 -132.1637062752681,430.1543382828827 -117.47885002246055,382.35941180700684"/><path class="link" d="M-152.76320840716244,476.0918001364336C-137.48688756644617,428.48262012279025 -132.1637062752681,430.1543382828827 -117.47885002246055,382.35941180700684"/><path class="link" d="M-176.17790693763635,467.9330562239363C-158.56011624387273,421.1397506015427 -163.76949966995858,419.14144507296277 -145.57288859551875,372.5701733981891"/><path class="link" d="M-187.72634038366417,463.42078193166594C-168.95370634529775,417.0787037384993 -163.76949966995858,419.14144507296277 -145.57288859551875,372.5701733981891"/><path class="link" d="M-210.4698738984936,453.5443001308165C-189.42288650864424,408.18987011773487 -194.4693363729332,405.80990280015465 -172.8616323314962,360.7199136001375"/><path class="link" d="M-221.6509887925619,448.1861657473149C-199.4858899133057,403.3675491725834 -194.4693363729332,405.80990280015465 -172.8616323314962,360.7199136001375"/><g class="node node--internal" transform="translate(0,0)"><circle r="2.5"/><text dy=".31em" x="6" transform="rotate(283.0093734583128)" style="text-anchor: start;">FORMA</text></g><g class="node node--internal" transform="translate(66.45492621611788,-74.72444567616631)"><circle r="2.5"/><text dy=".31em" x="-6" transform="rotate(-48.352244696595974)" style="text-anchor: end;">Morfologia</text></g><g class="node node--internal" transform="translate(99.54114532486726,9.56871921490325)"><circle r="2.5"/><text dy=".31em" x="-6" transform="rotate(5.490873211642807)" style="text-anchor: end;">Cristallografia</text></g><g class="node node--internal" transform="translate(66.7631935015016,74.44915038790606)"><circle r="2.5"/><text dy=".31em" x="-6" transform="rotate(48.11544153922054)" style="text-anchor: end;">Geometria</text></g><g class="node node--internal" transform="translate(-18.33910388986965,98.3040043361234)"><circle r="2.5"/><text dy=".31em" x="6" transform="rotate(280.56734089787864)" style="text-anchor: start;">Psicologia</text></g><g class="node node--internal" transform="translate(-57.80466426011029,81.60037248552196)"><circle r="2.5"/><text dy=".31em" x="6" transform="rotate(305.3132708436113)" style="text-anchor: start;">Morfogenesi</text></g><g class="node node--internal" transform="translate(-82.35478367086732,56.72468251585586)"><circle r="2.5"/><text dy=".31em" x="6" transform="rotate(325.44153922052294)" style="text-anchor: start;">Architettura</text></g><g class="node node--internal" transform="translate(-98.00284283045514,19.885743565406557)"><circle r="2.5"/><text dy=".31em" x="6" transform="rotate(348.5298470646275)" style="text-anchor: start;">Arte</text></g><g class="node node--internal" transform="translate(-97.27994194214725,-23.164906555660004)"><circle r="2.5"/><text dy=".31em" x="6" transform="rotate(373.39417858904784)" style="text-anchor: start;">Linguistica</text></g><g class="node node--internal" transform="translate(-87.13988865255352,-49.05751528176467)"><circle r="2.5"/><text dy=".31em" x="6" transform="rotate(389.3783917118895)" style="text-anchor: start;">Semiotica</text></g><g class="node node--internal" transform="translate(-69.52279827427428,-71.87892959772401)"><circle r="2.5"/><text dy=".31em" x="6" transform="rotate(405.9546127281697)" style="text-anchor: start;">Forma urbana</text></g><g class="node node--internal" transform="translate(-26.940742749553497,-96.30262914428859)"><circle r="2.5"/><text dy=".31em" x="6" transform="rotate(434.37099161322146)" style="text-anchor: start;">Composizione</text></g><g class="node node--internal" transform="translate(132.90985243223582,-149.44889135233254)"><circle r="2.5"/><text dy=".31em" x="-6" transform="rotate(-48.352244696595946)" style="text-anchor: end;">Fillotassi</text></g><g class="node node--internal" transform="translate(199.08229064973452,19.1374384298065)"><circle r="2.5"/><text dy=".31em" x="-6" transform="rotate(5.490873211642807)" style="text-anchor: end;">7 sistemi /14 reticoli</text></g><g class="node node--leaf" transform="translate(190.91992057599302,59.57838473185154)"><circle r="2.5"/><text dy=".31em" x="6" transform="rotate(17.33103108041439)" style="text-anchor: start;">Successione di Fibonacci</text></g><g class="node node--leaf" transform="translate(186.86195829567765,71.29241573901412)"><circle r="2.5"/><text dy=".31em" x="6" transform="rotate(20.883078441045868)" style="text-anchor: start;">Sezione Aurea</text></g><g class="node node--internal" transform="translate(182.08604630292123,82.73253133907139)"><circle r="2.5"/><text dy=".31em" x="-6" transform="rotate(24.435125801677344)" style="text-anchor: end;">Spirali</text></g><g class="node node--internal" transform="translate(158.75711578595264,121.63954203845732)"><circle r="2.5"/><text dy=".31em" x="-6" transform="rotate(37.45929945732608)" style="text-anchor: end;">Proiettiva</text></g><g class="node node--internal" transform="translate(117.45671798383009,161.8762471781052)"><circle r="2.5"/><text dy=".31em" x="-6" transform="rotate(54.03552047360631)" style="text-anchor: end;">Poliedri</text></g><g class="node node--internal" transform="translate(38.50490026473473,196.25843333625903)"><circle r="2.5"/><text dy=".31em" x="-6" transform="rotate(78.89985199802663)" style="text-anchor: end;">Tassellazioni</text></g><g class="node node--internal" transform="translate(-6.714854336747107,199.88724504389035)"><circle r="2.5"/><text dy=".31em" x="6" transform="rotate(271.92402565367536)" style="text-anchor: start;">Gestalt</text></g><g class="node node--internal" transform="translate(-65.80845613339058,188.86303794374274)"><circle r="2.5"/><text dy=".31em" x="6" transform="rotate(289.2106561420819)" style="text-anchor: start;">Tipi</text></g><g class="node node--internal" transform="translate(-115.60932852022059,163.20074497104392)"><circle r="2.5"/><text dy=".31em" x="6" transform="rotate(305.3132708436113)" style="text-anchor: start;">Teoria catastrofi</text></g><g class="node node--internal" transform="translate(-149.41455413385677,132.94845246553558)"><circle r="2.5"/><text dy=".31em" x="6" transform="rotate(318.3374444992601)" style="text-anchor: start;">Firmitas</text></g><g class="node node--internal" transform="translate(-164.70956734173473,113.44936503171164)"><circle r="2.5"/><text dy=".31em" x="6" transform="rotate(325.441539220523)" style="text-anchor: start;">Utilitas</text></g><g class="node node--internal" transform="translate(-177.4756634543009,92.20839919148212)"><circle r="2.5"/><text dy=".31em" x="6" transform="rotate(332.5456339417859)" style="text-anchor: start;">Venustas</text></g><g class="node node--leaf" transform="translate(-187.51683443619635,69.551684401085)"><circle r="2.5"/><text dy=".31em" x="-6" transform="rotate(339.64972866304885)" style="text-anchor: end;">Einfühlung</text></g><g class="node node--leaf" transform="translate(-191.46569126478985,57.80042446640144)"><circle r="2.5"/><text dy=".31em" x="-6" transform="rotate(343.20177602368034)" style="text-anchor: end;">Puro visibilismo</text></g><g class="node node--leaf" transform="translate(-194.67891019661906,45.82708723731777)"><circle r="2.5"/><text dy=".31em" x="-6" transform="rotate(346.7538233843118)" style="text-anchor: end;">Vitalismo</text></g><g class="node node--leaf" transform="translate(-197.14414559627937,33.67767594583988)"><circle r="2.5"/><text dy=".31em" x="-6" transform="rotate(350.30587074494326)" style="text-anchor: end;">Sequenze formali</text></g><g class="node node--leaf" transform="translate(-198.8519256854461,21.398870325085205)"><circle r="2.5"/><text dy=".31em" x="-6" transform="rotate(353.85791810557475)" style="text-anchor: end;">Repliche</text></g><g class="node node--leaf" transform="translate(-199.79568893476835,9.037847259235855)"><circle r="2.5"/><text dy=".31em" x="-6" transform="rotate(357.40996546620624)" style="text-anchor: end;">Oggetti primi</text></g><g class="node node--leaf" transform="translate(-199.37961002476698,-15.740746690415818)"><circle r="2.5"/><text dy=".31em" x="-6" transform="rotate(364.51406018746917)" style="text-anchor: end;">Morfemi</text></g><g class="node node--leaf" transform="translate(-198.02136649866176,-28.063114759461)"><circle r="2.5"/><text dy=".31em" x="-6" transform="rotate(368.06610754810066)" style="text-anchor: end;">Fonemi</text></g><g class="node node--leaf" transform="translate(-195.90229725697702,-40.277660426581505)"><circle r="2.5"/><text dy=".31em" x="-6" transform="rotate(371.61815490873215)" style="text-anchor: end;">Coinemi</text></g><g class="node node--leaf" transform="translate(-193.03054405936564,-52.337453703302195)"><circle r="2.5"/><text dy=".31em" x="-6" transform="rotate(375.1702022693636)" style="text-anchor: end;">Monemi</text></g><g class="node node--leaf" transform="translate(-189.41714058224434,-64.19615918142054)"><circle r="2.5"/><text dy=".31em" x="-6" transform="rotate(378.7222496299951)" style="text-anchor: end;">Icone</text></g><g class="node node--leaf" transform="translate(-185.07597002586945,-75.80821406011007)"><circle r="2.5"/><text dy=".31em" x="-6" transform="rotate(382.27429699062657)" style="text-anchor: end;">Iconemi</text></g><g class="node node--internal" transform="translate(-174.27977730510705,-98.11503056352934)"><circle r="2.5"/><text dy=".31em" x="6" transform="rotate(389.3783917118895)" style="text-anchor: start;">Segno</text></g><g class="node node--internal" transform="translate(-155.75703640263194,-125.45814286473873)"><circle r="2.5"/><text dy=".31em" x="6" transform="rotate(398.8505180069067)" style="text-anchor: start;">Morfologia</text></g><g class="node node--internal" transform="translate(-120.19927897112159,-159.8503466834604)"><circle r="2.5"/><text dy=".31em" x="6" transform="rotate(413.05870744943263)" style="text-anchor: start;">Tipologia</text></g><g class="node node--leaf" transform="translate(-99.50744618568278,-173.48852455884062)"><circle r="2.5"/><text dy=".31em" x="-6" transform="rotate(420.1628021706956)" style="text-anchor: end;">Montaggio</text></g><g class="node node--leaf" transform="translate(-88.56776613531332,-179.32024649157842)"><circle r="2.5"/><text dy=".31em" x="-6" transform="rotate(423.71484953132705)" style="text-anchor: end;">Sovrapposizione</text></g><g class="node node--leaf" transform="translate(-77.28779637157263,-184.46299502075294)"><circle r="2.5"/><text dy=".31em" x="-6" transform="rotate(427.26689689195854)" style="text-anchor: end;">Giustapposizione</text></g><g class="node node--leaf" transform="translate(-65.710876111935,-188.89701098906232)"><circle r="2.5"/><text dy=".31em" x="-6" transform="rotate(430.81894425259003)" style="text-anchor: end;">Agglutinazione</text></g><g class="node node--leaf" transform="translate(-53.881485499106994,-192.60525828857718)"><circle r="2.5"/><text dy=".31em" x="-6" transform="rotate(434.37099161322146)" style="text-anchor: end;">Collage</text></g><g class="node node--leaf" transform="translate(-41.84507470211271,-195.57348931584414)"><circle r="2.5"/><text dy=".31em" x="-6" transform="rotate(437.92303897385295)" style="text-anchor: end;">Straniamento</text></g><g class="node node--leaf" transform="translate(-29.647889290405853,-197.7902997131655)"><circle r="2.5"/><text dy=".31em" x="-6" transform="rotate(441.47508633448444)" style="text-anchor: end;">Intercambiabilità</text></g><g class="node node--leaf" transform="translate(-17.33679255193829,-199.2471721857328)"><circle r="2.5"/><text dy=".31em" x="-6" transform="rotate(445.02713369511594)" style="text-anchor: end;">Processi stocastici</text></g><g class="node node--leaf" transform="translate(-4.95908543787151,-199.9385092262616)"><circle r="2.5"/><text dy=".31em" x="-6" transform="rotate(448.57918105574737)" style="text-anchor: end;">Processi aleatori</text></g><g class="node node--internal" transform="translate(35.25544749312543,-297.9212201607322)"><circle r="2.5"/><text dy=".31em" x="-6" transform="rotate(-83.2511100148002)" style="text-anchor: end;">Foglie</text></g><g class="node node--internal" transform="translate(151.67464738901424,-258.8335398270831)"><circle r="2.5"/><text dy=".31em" x="-6" transform="rotate(-59.6299950666009)" style="text-anchor: end;">Margini</text></g><g class="node node--internal" transform="translate(243.76651933817894,-174.86533118302563)"><circle r="2.5"/><text dy=".31em" x="-6" transform="rotate(-35.653675382338434)" style="text-anchor: end;">Disposizione</text></g><g class="node node--internal" transform="translate(269.9003846452523,-130.97244889038632)"><circle r="2.5"/><text dy=".31em" x="-6" transform="rotate(-25.885545140601877)" style="text-anchor: end;">Rami</text></g><g class="node node--internal" transform="translate(291.7678647263914,-69.79622563579053)"><circle r="2.5"/><text dy=".31em" x="-6" transform="rotate(-13.453379378391716)" style="text-anchor: end;">Infiorescenza</text></g><g class="node node--leaf" transform="translate(298.78174638898395,-27.008665734332208)"><circle r="2.5"/><text dy=".31em" x="6" transform="rotate(-5.165268870251623)" style="text-anchor: start;">Triclino</text></g><g class="node node--internal" transform="translate(299.6425474895477,-14.640482709738118)"><circle r="2.5"/><text dy=".31em" x="-6" transform="rotate(-2.7972372964973005)" style="text-anchor: end;">Monoclino</text></g><g class="node node--internal" transform="translate(299.15284577434073,22.529422209934904)"><circle r="2.5"/><text dy=".31em" x="-6" transform="rotate(4.306857424765653)" style="text-anchor: end;">Ortorombico</text></g><g class="node node--leaf" transform="translate(297.1823370331792,41.020221299962564)"><circle r="2.5"/><text dy=".31em" x="6" transform="rotate(7.858904785397115)" style="text-anchor: start;">Trigonale/Romboedrico</text></g><g class="node node--internal" transform="translate(294.0700122939324,59.35341497712195)"><circle r="2.5"/><text dy=".31em" x="-6" transform="rotate(11.410952146028592)" style="text-anchor: end;">Tetragonale</text></g><g class="node node--leaf" transform="translate(291.36651283000447,71.45316788836483)"><circle r="2.5"/><text dy=".31em" x="6" transform="rotate(13.778983719782914)" style="text-anchor: start;">Esagonale</text></g><g class="node node--leaf" transform="translate(288.16538225105955,83.43088440200513)"><circle r="2.5"/><text dy=".31em" x="6" transform="rotate(16.147015293537223)" style="text-anchor: start;">Cubico</text></g><g class="node node--leaf" transform="translate(280.29293744351645,106.93862360852117)"><circle r="2.5"/><text dy=".31em" x="6" transform="rotate(20.883078441045868)" style="text-anchor: start;">Equiangolare o Logaritmica</text></g><g class="node node--leaf" transform="translate(275.6350687322135,118.42849692953102)"><circle r="2.5"/><text dy=".31em" x="6" transform="rotate(23.25111001480019)" style="text-anchor: start;">Archimedea</text></g><g class="node node--leaf" transform="translate(270.50643697659655,129.7161036811798)"><circle r="2.5"/><text dy=".31em" x="6" transform="rotate(25.619141588554513)" style="text-anchor: start;">Clotoide</text></g><g class="node node--leaf" transform="translate(264.91580147681407,140.7821655178568)"><circle r="2.5"/><text dy=".31em" x="6" transform="rotate(27.98717316230882)" style="text-anchor: start;">Iperbolica</text></g><g class="node node--leaf" transform="translate(252.38748546799314,162.17446525006196)"><circle r="2.5"/><text dy=".31em" x="6" transform="rotate(32.723236309817466)" style="text-anchor: start;">Rapporto di punti</text></g><g class="node node--leaf" transform="translate(245.47120233851015,172.46416677816353)"><circle r="2.5"/><text dy=".31em" x="6" transform="rotate(35.091267883571774)" style="text-anchor: start;">Birapporto di punti</text></g><g class="node node--leaf" transform="translate(238.13567367892895,182.459313057686)"><circle r="2.5"/><text dy=".31em" x="6" transform="rotate(37.45929945732608)" style="text-anchor: start;">Omologia</text></g><g class="node node--internal" transform="translate(230.39342799594257,192.14283316397314)"><circle r="2.5"/><text dy=".31em" x="-6" transform="rotate(39.827331031080405)" style="text-anchor: end;">Omotetia</text></g><g class="node node--leaf" transform="translate(222.25768843696954,201.49818840539228)"><circle r="2.5"/><text dy=".31em" x="6" transform="rotate(42.19536260483471)" style="text-anchor: start;">Affinità</text></g><g class="node node--internal" transform="translate(204.8619568319626,219.16107921567436)"><circle r="2.5"/><text dy=".31em" x="-6" transform="rotate(46.93142575234336)" style="text-anchor: end;">Regolari</text></g><g class="node node--internal" transform="translate(144.80308739036207,262.73954000534286)"><circle r="2.5"/><text dy=".31em" x="-6" transform="rotate(61.139615194869265)" style="text-anchor: end;">Semiregolari</text></g><g class="node node--internal" transform="translate(57.75735039710209,294.38765000438855)"><circle r="2.5"/><text dy=".31em" x="-6" transform="rotate(78.89985199802663)" style="text-anchor: end;">17 simmetrie</text></g><g class="node node--leaf" transform="translate(33.25379379268294,298.1512790487301)"><circle r="2.5"/><text dy=".31em" x="6" transform="rotate(83.63591514553528)" style="text-anchor: start;">Pregnanza</text></g><g class="node node--leaf" transform="translate(20.906327438566915,299.2706558836523)"><circle r="2.5"/><text dy=".31em" x="6" transform="rotate(86.00394671928959)" style="text-anchor: start;">Buona forma</text></g><g class="node node--leaf" transform="translate(8.52315471952531,299.8789019481481)"><circle r="2.5"/><text dy=".31em" x="6" transform="rotate(88.37197829304392)" style="text-anchor: start;">Prossimità</text></g><g class="node node--leaf" transform="translate(-3.874574878223134,299.97497840572146)"><circle r="2.5"/><text dy=".31em" x="-6" transform="rotate(270.74000986679823)" style="text-anchor: end;">Somiglianza</text></g><g class="node node--leaf" transform="translate(-16.265687006454787,299.5587211653302)"><circle r="2.5"/><text dy=".31em" x="-6" transform="rotate(273.10804144055254)" style="text-anchor: end;">Buona continuità</text></g><g class="node node--leaf" transform="translate(-28.629018619064098,298.630841161641)"><circle r="2.5"/><text dy=".31em" x="-6" transform="rotate(275.47607301430685)" style="text-anchor: end;">Destino comune</text></g><g class="node node--leaf" transform="translate(-40.94345411688339,297.1929231408088)"><circle r="2.5"/><text dy=".31em" x="-6" transform="rotate(277.8441045880612)" style="text-anchor: end;">Movimento indotto</text></g><g class="node node--leaf" transform="translate(-53.18796141146856,295.2474229538543)"><circle r="2.5"/><text dy=".31em" x="-6" transform="rotate(280.21213616181547)" style="text-anchor: end;">Figura/Sfondo</text></g><g class="node node--internal" transform="translate(-77.38369591372181,289.84782836297506)"><circle r="2.5"/><text dy=".31em" x="6" transform="rotate(284.94819930932414)" style="text-anchor: start;">Estroverso</text></g><g class="node node--internal" transform="translate(-119.49560367028734,275.1741279689528)"><circle r="2.5"/><text dy=".31em" x="6" transform="rotate(293.47311297483964)" style="text-anchor: start;">Introverso</text></g><g class="node node--leaf" transform="translate(-141.80757080474908,264.36832802447435)"><circle r="2.5"/><text dy=".31em" x="-6" transform="rotate(298.20917612234837)" style="text-anchor: end;">Piega</text></g><g class="node node--leaf" transform="translate(-152.60969149837175,258.28333678495756)"><circle r="2.5"/><text dy=".31em" x="-6" transform="rotate(300.5772076961026)" style="text-anchor: end;">Grinza</text></g><g class="node node--leaf" transform="translate(-163.15116682748416,251.7572178961915)"><circle r="2.5"/><text dy=".31em" x="-6" transform="rotate(302.945239269857)" style="text-anchor: end;">Crunodo</text></g><g class="node node--leaf" transform="translate(-173.4139927803309,244.80111745656586)"><circle r="2.5"/><text dy=".31em" x="-6" transform="rotate(305.3132708436113)" style="text-anchor: end;">Farfalla</text></g><g class="node node--leaf" transform="translate(-183.38064125640236,237.42691593918045)"><circle r="2.5"/><text dy=".31em" x="-6" transform="rotate(307.6813024173656)" style="text-anchor: end;">Ombelico iperbolico</text></g><g class="node node--leaf" transform="translate(-193.03409000305209,229.64720790093133)"><circle r="2.5"/><text dy=".31em" x="-6" transform="rotate(310.04933399111997)" style="text-anchor: end;">Ombelico ellittico</text></g><g class="node node--leaf" transform="translate(-202.35785168816713,221.47528047199705)"><circle r="2.5"/><text dy=".31em" x="-6" transform="rotate(312.4173655648742)" style="text-anchor: end;">Ombelico Parabolico</text></g><g class="node node--leaf" transform="translate(-219.9532071407242,204.01124152484755)"><circle r="2.5"/><text dy=".31em" x="-6" transform="rotate(317.1534287123829)" style="text-anchor: end;">Ordinatio</text></g><g class="node node--leaf" transform="translate(-228.19474942329256,194.7489572132306)"><circle r="2.5"/><text dy=".31em" x="-6" transform="rotate(319.5214602861372)" style="text-anchor: end;">Symmetria</text></g><g class="node node--leaf" transform="translate(-243.4952076076157,175.24292816580112)"><circle r="2.5"/><text dy=".31em" x="-6" transform="rotate(324.2575234336458)" style="text-anchor: end;">Distibrutio</text></g><g class="node node--leaf" transform="translate(-250.5279915287506,165.03249819526536)"><circle r="2.5"/><text dy=".31em" x="-6" transform="rotate(326.6255550074002)" style="text-anchor: end;">Decor</text></g><g class="node node--leaf" transform="translate(-263.29863233125496,143.78397063821345)"><circle r="2.5"/><text dy=".31em" x="-6" transform="rotate(331.3616181549088)" style="text-anchor: end;">Dispositio</text></g><g class="node node--leaf" transform="translate(-269.01467796135756,132.78216386754318)"><circle r="2.5"/><text dy=".31em" x="-6" transform="rotate(333.72964972866305)" style="text-anchor: end;">Eurythmia</text></g><g class="node node--leaf" transform="translate(-267.27732591961,-136.24548083977893)"><circle r="2.5"/><text dy=".31em" x="-6" transform="rotate(387.01036013813524)" style="text-anchor: end;">Semantica</text></g><g class="node node--leaf" transform="translate(-261.4196659576606,-147.17254584529402)"><circle r="2.5"/><text dy=".31em" x="-6" transform="rotate(389.3783917118895)" style="text-anchor: end;">Sintattica</text></g><g class="node node--leaf" transform="translate(-255.11552174261547,-157.84825170394856)"><circle r="2.5"/><text dy=".31em" x="-6" transform="rotate(391.74642328564386)" style="text-anchor: end;">Pragmatica</text></g><g class="node node--leaf" transform="translate(-241.21159265644548,-178.37311335551954)"><circle r="2.5"/><text dy=".31em" x="-6" transform="rotate(396.4824864331525)" style="text-anchor: end;">Elementi primari</text></g><g class="node node--leaf" transform="translate(-233.63555460394792,-188.18721429710808)"><circle r="2.5"/><text dy=".31em" x="-6" transform="rotate(398.8505180069067)" style="text-anchor: end;">Tracciati</text></g><g class="node node--leaf" transform="translate(-225.66048537790866,-197.67990626011203)"><circle r="2.5"/><text dy=".31em" x="-6" transform="rotate(401.2185495806611)" style="text-anchor: end;">Residenza</text></g><g class="node node--leaf" transform="translate(-208.56839482282282,-215.63678879317206)"><circle r="2.5"/><text dy=".31em" x="-6" transform="rotate(405.9546127281697)" style="text-anchor: end;">Isolata</text></g><g class="node node--leaf" transform="translate(-199.48056544173988,-224.07031041850175)"><circle r="2.5"/><text dy=".31em" x="-6" transform="rotate(408.32264430192396)" style="text-anchor: end;">Linea</text></g><g class="node node--leaf" transform="translate(-190.05203892548852,-232.12113755594208)"><circle r="2.5"/><text dy=".31em" x="-6" transform="rotate(410.6906758756784)" style="text-anchor: end;">Schiera</text></g><g class="node node--leaf" transform="translate(-180.2989184566824,-239.77552002519062)"><circle r="2.5"/><text dy=".31em" x="-6" transform="rotate(413.05870744943263)" style="text-anchor: end;">Ballatoio</text></g><g class="node node--leaf" transform="translate(-170.23786159890523,-247.0203847422961)"><circle r="2.5"/><text dy=".31em" x="-6" transform="rotate(415.42673902318694)" style="text-anchor: end;">Blocco</text></g><g class="node node--leaf" transform="translate(-159.88605184690266,-253.84335804745723)"><circle r="2.5"/><text dy=".31em" x="-6" transform="rotate(417.7947705969413)" style="text-anchor: end;">Torre</text></g><g class="node node--leaf" transform="translate(-149.26116927852416,-260.23278683826095)"><circle r="2.5"/><text dy=".31em" x="-6" transform="rotate(420.1628021706956)" style="text-anchor: end;">Corte</text></g><g class="node node--internal" transform="translate(24.78208707476173,-399.23157209847386)"><circle r="2.5"/><text dy=".31em" x="-6" transform="rotate(-86.44795263936852)" style="text-anchor: end;">Verticillata</text></g><g class="node node--leaf" transform="translate(47.00726332416724,-397.228293547643)"><circle r="2.5"/><text dy=".31em" x="6" transform="rotate(-83.2511100148002)" style="text-anchor: start;">Opposta</text></g><g class="node node--internal" transform="translate(69.08613781488711,-393.98871248022124)"><circle r="2.5"/><text dy=".31em" x="-6" transform="rotate(-80.05426739023189)" style="text-anchor: end;">Decussata</text></g><g class="node node--leaf" transform="translate(93.36307497301817,-388.951585973862)"><circle r="2.5"/><text dy=".31em" x="6" transform="rotate(-76.50222002960041)" style="text-anchor: start;">Ondulata</text></g><g class="node node--leaf" transform="translate(105.37280585850002,-385.8711854822887)"><circle r="2.5"/><text dy=".31em" x="6" transform="rotate(-74.72619634928466)" style="text-anchor: start;">Sinuata</text></g><g class="node node--leaf" transform="translate(117.2812981722416,-382.420053212477)"><circle r="2.5"/><text dy=".31em" x="6" transform="rotate(-72.95017266896893)" style="text-anchor: start;">Acerata</text></g><g class="node node--leaf" transform="translate(129.07711064394962,-378.60150489374655)"><circle r="2.5"/><text dy=".31em" x="6" transform="rotate(-71.17414898865319)" style="text-anchor: start;">Dentata</text></g><g class="node node--leaf" transform="translate(140.74891026225131,-374.4192092561341)"><circle r="2.5"/><text dy=".31em" x="6" transform="rotate(-69.39812530833746)" style="text-anchor: start;">Seghettata</text></g><g class="node node--leaf" transform="translate(152.28548316306328,-369.8771845056036)"><circle r="2.5"/><text dy=".31em" x="6" transform="rotate(-67.62210162802171)" style="text-anchor: start;">Festonata</text></g><g class="node node--leaf" transform="translate(163.67574540348636,-364.97979446349234)"><circle r="2.5"/><text dy=".31em" x="6" transform="rotate(-65.84607794770598)" style="text-anchor: start;">Lobata</text></g><g class="node node--leaf" transform="translate(174.9087536108774,-359.73174437390065)"><circle r="2.5"/><text dy=".31em" x="6" transform="rotate(-64.07005426739025)" style="text-anchor: start;">Palmata</text></g><g class="node node--leaf" transform="translate(185.9737154968657,-354.1380763830555)"><circle r="2.5"/><text dy=".31em" x="6" transform="rotate(-62.2940305870745)" style="text-anchor: start;">Lacerata</text></g><g class="node node--leaf" transform="translate(196.8600002262128,-348.2041646949897)"><circle r="2.5"/><text dy=".31em" x="6" transform="rotate(-60.518006906758764)" style="text-anchor: start;">Digitata</text></g><g class="node node--leaf" transform="translate(207.55714863055377,-341.93571040819097)"><circle r="2.5"/><text dy=".31em" x="6" transform="rotate(-58.741983226443026)" style="text-anchor: start;">Bipennatosetta</text></g><g class="node node--leaf" transform="translate(218.05488325720694,-335.33873603818256)"><circle r="2.5"/><text dy=".31em" x="6" transform="rotate(-56.96595954612729)" style="text-anchor: start;">Tripennatosetta</text></g><g class="node node--leaf" transform="translate(228.34311824339716,-328.4195797312973)"><circle r="2.5"/><text dy=".31em" x="6" transform="rotate(-55.18993586581155)" style="text-anchor: start;">Pennatosetta</text></g><g class="node node--leaf" transform="translate(238.41196900640665,-321.1848891752042)"><circle r="2.5"/><text dy=".31em" x="6" transform="rotate(-53.41391218549582)" style="text-anchor: start;">Palmatosetta</text></g><g class="node node--leaf" transform="translate(248.251761740342,-313.6416152120386)"><circle r="2.5"/><text dy=".31em" x="6" transform="rotate(-51.63788850518008)" style="text-anchor: start;">Pedadisetta</text></g><g class="node node--leaf" transform="translate(257.85304271039485,-305.7970051602718)"><circle r="2.5"/><text dy=".31em" x="6" transform="rotate(-49.86186482486434)" style="text-anchor: start;">Palmato-lobata</text></g><g class="node node--leaf" transform="translate(267.20658733566535,-297.65859585173655)"><circle r="2.5"/><text dy=".31em" x="6" transform="rotate(-48.0858411445486)" style="text-anchor: start;">Bipartita</text></g><g class="node node--leaf" transform="translate(276.30340905182265,-289.23420639049795)"><circle r="2.5"/><text dy=".31em" x="6" transform="rotate(-46.309817464232864)" style="text-anchor: start;">Tripartita</text></g><g class="node node--leaf" transform="translate(285.1347679450872,-280.5319306405267)"><circle r="2.5"/><text dy=".31em" x="6" transform="rotate(-44.533793783917126)" style="text-anchor: start;">Palmato-partita</text></g><g class="node node--leaf" transform="translate(293.6921791492394,-271.56012944939295)"><circle r="2.5"/><text dy=".31em" x="6" transform="rotate(-42.75777010360139)" style="text-anchor: start;">Pinnato-partita</text></g><g class="node node--leaf" transform="translate(309.9525429220647,-252.8426806062331)"><circle r="2.5"/><text dy=".31em" x="6" transform="rotate(-39.20572274296991)" style="text-anchor: start;">Imparipennata</text></g><g class="node node--leaf" transform="translate(317.63987309185677,-243.11501603600948)"><circle r="2.5"/><text dy=".31em" x="6" transform="rotate(-37.42969906265417)" style="text-anchor: start;">Paripennata</text></g><g class="node node--leaf" transform="translate(325.02202578423856,-233.15377491070083)"><circle r="2.5"/><text dy=".31em" x="6" transform="rotate(-35.653675382338434)" style="text-anchor: start;">Bipennatosetta</text></g><g class="node node--leaf" transform="translate(332.0919084805204,-222.9685276485578)"><circle r="2.5"/><text dy=".31em" x="6" transform="rotate(-33.8776517020227)" style="text-anchor: start;">Tripennatosetta</text></g><g class="node node--leaf" transform="translate(338.8427286802966,-212.56905988523096)"><circle r="2.5"/><text dy=".31em" x="6" transform="rotate(-32.101628021706965)" style="text-anchor: start;">Spirale</text></g><g class="node node--leaf" transform="translate(351.36155054161867,-191.16762487667606)"><circle r="2.5"/><text dy=".31em" x="6" transform="rotate(-28.54958066107549)" style="text-anchor: start;">Monopodiale verticillata</text></g><g class="node node--leaf" transform="translate(357.1175245492098,-180.18621939494855)"><circle r="2.5"/><text dy=".31em" x="6" transform="rotate(-26.77355698075975)" style="text-anchor: start;">Monopodiale sparsa</text></g><g class="node node--leaf" transform="translate(362.53039230814244,-169.03169718400258)"><circle r="2.5"/><text dy=".31em" x="6" transform="rotate(-24.99753330044402)" style="text-anchor: start;">Dicotomia</text></g><g class="node node--leaf" transform="translate(367.59495332103523,-157.71477512555992)"><circle r="2.5"/><text dy=".31em" x="6" transform="rotate(-23.221509620128273)" style="text-anchor: start;">Falsa dicotomia</text></g><g class="node node--leaf" transform="translate(376.66003099990024,-134.63736868772426)"><circle r="2.5"/><text dy=".31em" x="6" transform="rotate(-19.669462259496797)" style="text-anchor: start;">Racemo</text></g><g class="node node--leaf" transform="translate(380.6518382506733,-122.8990562876024)"><circle r="2.5"/><text dy=".31em" x="6" transform="rotate(-17.893438579181066)" style="text-anchor: start;">Racemo composto</text></g><g class="node node--leaf" transform="translate(384.2779282927151,-111.04266669645008)"><circle r="2.5"/><text dy=".31em" x="6" transform="rotate(-16.11741489886532)" style="text-anchor: start;">Spiga</text></g><g class="node node--leaf" transform="translate(387.5348173032892,-99.07959112605513)"><circle r="2.5"/><text dy=".31em" x="6" transform="rotate(-14.341391218549589)" style="text-anchor: start;">Corimbo</text></g><g class="node node--leaf" transform="translate(390.4193761753261,-87.02132328842879)"><circle r="2.5"/><text dy=".31em" x="6" transform="rotate(-12.565367538233843)" style="text-anchor: start;">Ombrello</text></g><g class="node node--leaf" transform="translate(392.9288335237617,-74.87944835304253)"><circle r="2.5"/><text dy=".31em" x="6" transform="rotate(-10.789343857918112)" style="text-anchor: start;">Capolino</text></g><g class="node node--leaf" transform="translate(395.0607783481893,-62.66563181619471)"><circle r="2.5"/><text dy=".31em" x="6" transform="rotate(-9.013320177602367)" style="text-anchor: start;">Ombrello a dicasio</text></g><g class="node node--leaf" transform="translate(396.8131623492653,-50.39160829320311)"><circle r="2.5"/><text dy=".31em" x="6" transform="rotate(-7.237296497286636)" style="text-anchor: start;">Spiroide</text></g><g class="node node--leaf" transform="translate(399.1728796465589,-25.710156644287423)"><circle r="2.5"/><text dy=".31em" x="6" transform="rotate(-3.685249136655173)" style="text-anchor: start;">Primitivo</text></g><g class="node node--leaf" transform="translate(399.7779458074663,-13.326441609165565)"><circle r="2.5"/><text dy=".31em" x="6" transform="rotate(-1.909225456339442)" style="text-anchor: start;">Base centrata</text></g><g class="node node--leaf" transform="translate(399.8355870784208,11.467489073660776)"><circle r="2.5"/><text dy=".31em" x="6" transform="rotate(1.6428219042920347)" style="text-anchor: start;">Primitivo</text></g><g class="node node--leaf" transform="translate(399.28810680871504,23.853883564571504)"><circle r="2.5"/><text dy=".31em" x="6" transform="rotate(3.41884558460778)" style="text-anchor: start;">Base centrata</text></g><g class="node node--leaf" transform="translate(398.35700424370464,36.217360063663875)"><circle r="2.5"/><text dy=".31em" x="6" transform="rotate(5.194869264923511)" style="text-anchor: start;">Corpo centrato</text></g><g class="node node--leaf" transform="translate(397.04317395474555,48.54604016747039)"><circle r="2.5"/><text dy=".31em" x="6" transform="rotate(6.970892945239257)" style="text-anchor: start;">Faccia centrata</text></g><g class="node node--leaf" transform="translate(393.27274583588945,73.05167611150281)"><circle r="2.5"/><text dy=".31em" x="6" transform="rotate(10.522940305870733)" style="text-anchor: start;">Primitivo</text></g><g class="node node--leaf" transform="translate(390.81977050379425,85.20508777861549)"><circle r="2.5"/><text dy=".31em" x="6" transform="rotate(12.298963986186465)" style="text-anchor: start;">Corpo centrato</text></g><g class="node node--leaf" transform="translate(307.19123732792343,256.1904442186309)"><circle r="2.5"/><text dy=".31em" x="6" transform="rotate(39.827331031080405)" style="text-anchor: start;">Frattali</text></g><g class="node node--internal" transform="translate(273.1492757759501,292.21477228756584)"><circle r="2.5"/><text dy=".31em" x="-6" transform="rotate(46.93142575234336)" style="text-anchor: end;">5 platonici</text></g><g class="node node--internal" transform="translate(193.07078318714943,350.3193866737905)"><circle r="2.5"/><text dy=".31em" x="-6" transform="rotate(61.139615194869265)" style="text-anchor: end;">13 archimedei</text></g><g class="node node--leaf" transform="translate(170.99576688390576,361.60814109721724)"><circle r="2.5"/><text dy=".31em" x="6" transform="rotate(64.69166255550073)" style="text-anchor: start;">Rotazione di π/3</text></g><g class="node node--leaf" transform="translate(159.70648418810367,366.73401656824115)"><circle r="2.5"/><text dy=".31em" x="6" transform="rotate(66.46768623581647)" style="text-anchor: start;">P6</text></g><g class="node node--leaf" transform="translate(148.26376098907957,371.50754659545356)"><circle r="2.5"/><text dy=".31em" x="6" transform="rotate(68.24370991613222)" style="text-anchor: start;">P6M</text></g><g class="node node--leaf" transform="translate(136.6785910621635,375.92414493520084)"><circle r="2.5"/><text dy=".31em" x="6" transform="rotate(70.01973359644796)" style="text-anchor: start;">Rotazione di π/2</text></g><g class="node node--leaf" transform="translate(124.96210504060767,379.9795682715324)"><circle r="2.5"/><text dy=".31em" x="6" transform="rotate(71.79575727676368)" style="text-anchor: start;">P4</text></g><g class="node node--leaf" transform="translate(113.12555972165623,383.66992029303265)"><circle r="2.5"/><text dy=".31em" x="6" transform="rotate(73.57178095707943)" style="text-anchor: start;">P4G</text></g><g class="node node--leaf" transform="translate(101.18032725140228,386.99165543626276)"><circle r="2.5"/><text dy=".31em" x="6" transform="rotate(75.34780463739517)" style="text-anchor: start;">P4M</text></g><g class="node node--leaf" transform="translate(89.13788419881948,389.94158229221705)"><circle r="2.5"/><text dy=".31em" x="6" transform="rotate(77.12382831771092)" style="text-anchor: start;">Rotazione di 2π/3</text></g><g class="node node--leaf" transform="translate(77.00980052946946,392.51686667251806)"><circle r="2.5"/><text dy=".31em" x="6" transform="rotate(78.89985199802663)" style="text-anchor: start;">P3</text></g><g class="node node--leaf" transform="translate(64.80772848947592,394.71503433240844)"><circle r="2.5"/><text dy=".31em" x="6" transform="rotate(80.67587567834238)" style="text-anchor: start;">P31M</text></g><g class="node node--leaf" transform="translate(52.543391410447406,396.53397334791947)"><circle r="2.5"/><text dy=".31em" x="6" transform="rotate(82.45189935865812)" style="text-anchor: start;">P3M1</text></g><g class="node node--leaf" transform="translate(40.228572446103136,397.9719361449355)"><circle r="2.5"/><text dy=".31em" x="6" transform="rotate(84.22792303897384)" style="text-anchor: start;">Rotazione di π</text></g><g class="node node--leaf" transform="translate(27.875103251422555,399.0275411782031)"><circle r="2.5"/><text dy=".31em" x="6" transform="rotate(86.00394671928959)" style="text-anchor: start;">P2</text></g><g class="node node--leaf" transform="translate(15.494852615199427,399.6997742586719)"><circle r="2.5"/><text dy=".31em" x="6" transform="rotate(87.77997039960533)" style="text-anchor: start;">CMM</text></g><g class="node node--leaf" transform="translate(3.099715056915953,399.9879895278931)"><circle r="2.5"/><text dy=".31em" x="6" transform="rotate(89.55599407992108)" style="text-anchor: start;">PMM</text></g><g class="node node--leaf" transform="translate(-9.298400601101878,399.8919100785379)"><circle r="2.5"/><text dy=".31em" x="-6" transform="rotate(271.3320177602368)" style="text-anchor: end;">PMG</text></g><g class="node node--leaf" transform="translate(-21.68758267527305,399.41162822044026)"><circle r="2.5"/><text dy=".31em" x="-6" transform="rotate(273.10804144055254)" style="text-anchor: end;">PGG</text></g><g class="node node--internal" transform="translate(-88.7349300580109,390.0334757268918)"><circle r="2.5"/><text dy=".31em" x="6" transform="rotate(282.8169708929453)" style="text-anchor: start;">Razionali</text></g><g class="node node--internal" transform="translate(-117.47885002246055,382.35941180700684)"><circle r="2.5"/><text dy=".31em" x="6" transform="rotate(287.079427725703)" style="text-anchor: start;">Irrazionali</text></g><g class="node node--internal" transform="translate(-145.57288859551875,372.5701733981891)"><circle r="2.5"/><text dy=".31em" x="6" transform="rotate(291.3418845584608)" style="text-anchor: start;">Razionali</text></g><g class="node node--internal" transform="translate(-172.8616323314962,360.7199136001375)"><circle r="2.5"/><text dy=".31em" x="6" transform="rotate(295.60434139121855)" style="text-anchor: start;">Irrazionali</text></g><g class="node node--leaf" transform="translate(12.39771359467838,-499.846273065654)"><circle r="2.5"/><text dy=".31em" x="6" transform="rotate(-88.57918105574741)" style="text-anchor: start;">Ternata</text></g><g class="node node--leaf" transform="translate(24.78780373934138,-499.3851867904973)"><circle r="2.5"/><text dy=".31em" x="6" transform="rotate(-87.15836211149482)" style="text-anchor: start;">Quaternata</text></g><g class="node node--leaf" transform="translate(37.162651671692196,-498.6170247000482)"><circle r="2.5"/><text dy=".31em" x="6" transform="rotate(-85.73754316724225)" style="text-anchor: start;">Sena</text></g><g class="node node--leaf" transform="translate(49.51464800198881,-497.54225914311957)"><circle r="2.5"/><text dy=".31em" x="6" transform="rotate(-84.31672422298963)" style="text-anchor: start;">Ottona</text></g><g class="node node--leaf" transform="translate(74.11972322601413,-494.4757492829138)"><circle r="2.5"/><text dy=".31em" x="6" transform="rotate(-81.47508633448446)" style="text-anchor: start;">Distica</text></g><g class="node node--leaf" transform="translate(86.3576722686089,-492.48589060027655)"><circle r="2.5"/><text dy=".31em" x="6" transform="rotate(-80.05426739023189)" style="text-anchor: start;">Tetrastica</text></g><g class="node node--leaf" transform="translate(98.54251931034331,-490.1931985329566)"><circle r="2.5"/><text dy=".31em" x="6" transform="rotate(-78.6334484459793)" style="text-anchor: start;">Spiralata</text></g><g class="node node--leaf" transform="translate(359.1251613256562,347.89239500572785)"><circle r="2.5"/><text dy=".31em" x="6" transform="rotate(44.089787863838154)" style="text-anchor: start;">Tetraedro</text></g><g class="node node--leaf" transform="translate(350.3886063553665,356.69009593251116)"><circle r="2.5"/><text dy=".31em" x="6" transform="rotate(45.510606808090756)" style="text-anchor: start;">Esaedro</text></g><g class="node node--leaf" transform="translate(341.43659471993766,365.2684653594573)"><circle r="2.5"/><text dy=".31em" x="6" transform="rotate(46.93142575234336)" style="text-anchor: start;">Ottaedro</text></g><g class="node node--leaf" transform="translate(332.27463108058964,373.6222283808313)"><circle r="2.5"/><text dy=".31em" x="6" transform="rotate(48.35224469659593)" style="text-anchor: start;">Dodecaedro</text></g><g class="node node--leaf" transform="translate(322.90834919965357,381.74624820311544)"><circle r="2.5"/><text dy=".31em" x="6" transform="rotate(49.773063640848534)" style="text-anchor: start;">Icosaedro</text></g><g class="node node--leaf" transform="translate(303.5859904051828,397.2852205024801)"><circle r="2.5"/><text dy=".31em" x="6" transform="rotate(52.61470152935371)" style="text-anchor: start;">Tetraedro troncato</text></g><g class="node node--leaf" transform="translate(293.64179495957524,404.69061794526294)"><circle r="2.5"/><text dy=".31em" x="6" transform="rotate(54.03552047360631)" style="text-anchor: start;">Esaedro troncato</text></g><g class="node node--leaf" transform="translate(283.51703690222786,411.8471679958244)"><circle r="2.5"/><text dy=".31em" x="6" transform="rotate(55.456339417858885)" style="text-anchor: start;">Ottaedro troncato</text></g><g class="node node--leaf" transform="translate(273.21794202520886,418.75047003616555)"><circle r="2.5"/><text dy=".31em" x="6" transform="rotate(56.87715836211149)" style="text-anchor: start;">Dodecaedro troncato</text></g><g class="node node--leaf" transform="translate(262.75084332164664,425.3962791724482)"><circle r="2.5"/><text dy=".31em" x="6" transform="rotate(58.29797730636406)" style="text-anchor: start;">Icosaedro troncato</text></g><g class="node node--leaf" transform="translate(252.1221770915215,431.7805088452135)"><circle r="2.5"/><text dy=".31em" x="6" transform="rotate(59.71879625061666)" style="text-anchor: start;">Cubottaedro</text></g><g class="node node--leaf" transform="translate(241.3384789839368,437.8992333422381)"><circle r="2.5"/><text dy=".31em" x="6" transform="rotate(61.139615194869265)" style="text-anchor: start;">Icosidodecaedro</text></g><g class="node node--leaf" transform="translate(230.40637997829666,443.74869021248594)"><circle r="2.5"/><text dy=".31em" x="6" transform="rotate(62.56043413912181)" style="text-anchor: start;">Rombicubottaedro</text></g><g class="node node--leaf" transform="translate(219.3326023068646,449.3252825796683)"><circle r="2.5"/><text dy=".31em" x="6" transform="rotate(63.98125308337444)" style="text-anchor: start;">Cubottaedro troncato</text></g><g class="node node--leaf" transform="translate(208.12395532121397,454.62558135398996)"><circle r="2.5"/><text dy=".31em" x="6" transform="rotate(65.40207202762701)" style="text-anchor: start;">Rombicosidodecaedro</text></g><g class="node node--leaf" transform="translate(196.78733130510108,459.64632734072444)"><circle r="2.5"/><text dy=".31em" x="6" transform="rotate(66.82289097187962)" style="text-anchor: start;">Icosidodecaedro troncato</text></g><g class="node node--leaf" transform="translate(185.32970123634948,464.38443324431694)"><circle r="2.5"/><text dy=".31em" x="6" transform="rotate(68.24370991613222)" style="text-anchor: start;">Cubottaedro camuso</text></g><g class="node node--leaf" transform="translate(173.7581105003411,468.8369855667866)"><circle r="2.5"/><text dy=".31em" x="6" transform="rotate(69.66452886038476)" style="text-anchor: start;">Dodecaedro camuso</text></g><g class="node node--leaf" transform="translate(-104.86526784892398,488.8796125826617)"><circle r="2.5"/><text dy=".31em" x="-6" transform="rotate(282.10656142081893)" style="text-anchor: end;">Tipo di pensiero estroverso</text></g><g class="node node--leaf" transform="translate(-116.95500545478679,486.1291255408081)"><circle r="2.5"/><text dy=".31em" x="-6" transform="rotate(283.5273803650715)" style="text-anchor: end;">Tipo di sentimento estroverso</text></g><g class="node node--leaf" transform="translate(-140.91134120201116,479.7332528819014)"><circle r="2.5"/><text dy=".31em" x="-6" transform="rotate(286.3690182535767)" style="text-anchor: end;">Tipo sensoriale estroverso</text></g><g class="node node--leaf" transform="translate(-152.76320840716244,476.0918001364336)"><circle r="2.5"/><text dy=".31em" x="-6" transform="rotate(287.78983719782934)" style="text-anchor: end;">Tipo intuitivo estroverso</text></g><g class="node node--leaf" transform="translate(-176.17790693763635,467.9330562239363)"><circle r="2.5"/><text dy=".31em" x="-6" transform="rotate(290.6314750863345)" style="text-anchor: end;">Tipo di pensiero introverso</text></g><g class="node node--leaf" transform="translate(-187.72634038366417,463.42078193166594)"><circle r="2.5"/><text dy=".31em" x="-6" transform="rotate(292.05229403058706)" style="text-anchor: end;">Tipo di sentimento introverso</text></g><g class="node node--leaf" transform="translate(-210.4698738984936,453.5443001308165)"><circle r="2.5"/><text dy=".31em" x="-6" transform="rotate(294.89393191909227)" style="text-anchor: end;">Tipo sensoriale introverso</text></g><g class="node node--leaf" transform="translate(-221.6509887925619,448.1861657473149)"><circle r="2.5"/><text dy=".31em" x="-6" transform="rotate(296.3147508633449)" style="text-anchor: end;">Tipo intuitivo introverso</text></g></g></svg>